<svg xmlns="http://www.w3.org/2000/svg" xmlns:xlink="http://www.w3.org/1999/xlink" width="500" zoomAndPan="magnify" viewBox="0 0 375 374.999991" height="500" preserveAspectRatio="xMidYMid meet" version="1.0"><defs><g/></defs><g fill="#000000" fill-opacity="1"><g transform="translate(154.613639, 164.327625)"><g><path d="M 21.453125 -114.546875 L 24.609375 -112.015625 C 26.503906 -110.753906 28.296875 -108.546875 29.984375 -105.390625 C 31.035156 -104.128906 31.664062 -103.078125 31.875 -102.234375 L 33.765625 -97.8125 C 34.390625 -95.71875 34.8125 -94.144531 35.03125 -93.09375 C 35.238281 -91.613281 35.238281 -90.347656 35.03125 -89.296875 C 33.550781 -87.398438 31.023438 -86.769531 27.453125 -87.40625 C 24.710938 -88.039062 22.082031 -88.882812 19.5625 -89.9375 C 18.9375 -90.351562 18.097656 -90.984375 17.046875 -91.828125 L 12.9375 -94.671875 C 11.46875 -95.503906 10.207031 -96.445312 9.15625 -97.5 C 8.101562 -98.550781 7.785156 -99.5 8.203125 -100.34375 C 10.304688 -105.394531 11.460938 -108.128906 11.671875 -108.546875 C 12.929688 -111.492188 14.035156 -113.28125 14.984375 -113.90625 C 15.929688 -114.539062 18.085938 -114.753906 21.453125 -114.546875 Z M 54.59375 -47.96875 L 53.640625 -45.125 L 49.21875 -35.03125 L 49.21875 -35.34375 C 46.28125 -28.1875 42.8125 -22.085938 38.8125 -17.046875 L 27.453125 -2.84375 C 27.035156 -0.53125 27.035156 1.570312 27.453125 3.46875 C 27.660156 5.363281 27.660156 7.257812 27.453125 9.15625 C 26.816406 13.78125 26.394531 16.617188 26.1875 17.671875 C 25.5625 19.566406 25.035156 22.40625 24.609375 26.1875 L 23.671875 34.390625 C 23.242188 38.179688 22.71875 40.914062 22.09375 42.59375 C 20.40625 48.695312 19.457031 54.691406 19.25 60.578125 C 19.039062 66.472656 18.410156 72.472656 17.359375 78.578125 C 14.828125 91.398438 12.09375 102.441406 9.15625 111.703125 L 4.421875 127.796875 C 2.941406 132.847656 0.0976562 137.789062 -4.109375 142.625 C -4.316406 143.050781 -4.945312 143.785156 -6 144.828125 C -7.050781 145.878906 -7.890625 146.828125 -8.515625 147.671875 C -10.203125 149.566406 -11.992188 151.359375 -13.890625 153.046875 C -16.410156 154.722656 -18.40625 155.984375 -19.875 156.828125 C -22.1875 157.878906 -24.394531 158.085938 -26.5 157.453125 C -27.34375 157.242188 -29.867188 156.828125 -34.078125 156.203125 C -37.234375 155.773438 -39.546875 155.25 -41.015625 154.625 C -43.328125 153.988281 -45.429688 153.039062 -47.328125 151.78125 C -49.015625 150.519531 -50.804688 148.625 -52.703125 146.09375 C -54.804688 142.101562 -56.066406 137.582031 -56.484375 132.53125 C -56.898438 126.632812 -56.691406 121.585938 -55.859375 117.390625 C -54.378906 109.179688 -53.328125 104.234375 -52.703125 102.546875 L -47.96875 89.296875 C -43.96875 80.046875 -39.441406 70.894531 -34.390625 61.84375 C -29.765625 53.644531 -24.507812 44.914062 -18.625 35.65625 C -18.195312 35.019531 -17.769531 34.382812 -17.34375 33.75 C -16.925781 33.125 -16.453125 32.492188 -15.921875 31.859375 C -15.398438 31.234375 -14.929688 30.609375 -14.515625 29.984375 C -12.828125 28.085938 -11.566406 26.191406 -10.734375 24.296875 C -9.890625 22.609375 -9.46875 20.296875 -9.46875 17.359375 C -9.46875 13.992188 -9.363281 11.570312 -9.15625 10.09375 L -7.890625 -5.046875 C -7.460938 -11.773438 -6.9375 -16.929688 -6.3125 -20.515625 L -3.78125 -35.65625 L -0.625 -50.796875 C -0.207031 -51.640625 0.15625 -52.796875 0.46875 -54.265625 C 0.789062 -55.742188 1.054688 -56.898438 1.265625 -57.734375 C 1.472656 -58.578125 1.894531 -60.894531 2.53125 -64.6875 L 3.46875 -71.3125 C 3.675781 -74.257812 4.625 -76.15625 6.3125 -77 L 17.984375 -75.09375 L 24.609375 -73.515625 L 28.40625 -71.625 L 31.5625 -69.109375 C 33.03125 -61.535156 33.34375 -54.171875 32.5 -47.015625 C 31.238281 -37.335938 30.1875 -30.082031 29.34375 -25.25 L 27.453125 -12.625 C 30.191406 -15.988281 32.71875 -19.457031 35.03125 -23.03125 C 35.863281 -23.875 36.859375 -25.296875 38.015625 -27.296875 C 39.179688 -29.296875 40.179688 -30.71875 41.015625 -31.5625 C 43.117188 -34.289062 44.59375 -36.601562 45.4375 -38.5 L 50.171875 -47.015625 C 51.429688 -49.328125 52.90625 -49.644531 54.59375 -47.96875 Z M -15.140625 80.15625 C -15.566406 76.363281 -15.253906 72.578125 -14.203125 68.796875 C -13.359375 65.003906 -13.039062 61.109375 -13.25 57.109375 C -13.25 55.640625 -13.351562 54.695312 -13.5625 54.28125 C -17.5625 61.851562 -20.71875 69.738281 -23.03125 77.9375 L -29.65625 102.546875 L -32.1875 113.90625 C -32.8125 117.0625 -33.96875 120.742188 -35.65625 124.953125 L -38.5 129.6875 L -41.015625 134.421875 C -42.066406 136.734375 -42.703125 139.15625 -42.921875 141.6875 L -43.859375 148.9375 C -44.273438 150.832031 -43.328125 152.304688 -41.015625 153.359375 C -38.492188 154.203125 -35.023438 154.304688 -30.609375 153.671875 C -29.140625 153.460938 -27.878906 152.515625 -26.828125 150.828125 C -25.984375 149.773438 -25.242188 148.09375 -24.609375 145.78125 C -24.191406 144.726562 -23.769531 142.835938 -23.34375 140.109375 L -22.40625 135.046875 L -19.5625 120.859375 C -18.71875 116.015625 -18.085938 111.28125 -17.671875 106.65625 L -16.71875 93.40625 C -16.300781 86.882812 -15.773438 82.46875 -15.140625 80.15625 Z M -15.140625 80.15625 "/></g></g></g><g fill="#000000" fill-opacity="1"><g transform="translate(206.360142, 164.327625)"><g><path d="M 21.453125 -114.546875 L 24.609375 -112.015625 C 26.503906 -110.753906 28.296875 -108.546875 29.984375 -105.390625 C 31.035156 -104.128906 31.664062 -103.078125 31.875 -102.234375 L 33.765625 -97.8125 C 34.390625 -95.71875 34.8125 -94.144531 35.03125 -93.09375 C 35.238281 -91.613281 35.238281 -90.347656 35.03125 -89.296875 C 33.550781 -87.398438 31.023438 -86.769531 27.453125 -87.40625 C 24.710938 -88.039062 22.082031 -88.882812 19.5625 -89.9375 C 18.9375 -90.351562 18.097656 -90.984375 17.046875 -91.828125 L 12.9375 -94.671875 C 11.46875 -95.503906 10.207031 -96.445312 9.15625 -97.5 C 8.101562 -98.550781 7.785156 -99.5 8.203125 -100.34375 C 10.304688 -105.394531 11.460938 -108.128906 11.671875 -108.546875 C 12.929688 -111.492188 14.035156 -113.28125 14.984375 -113.90625 C 15.929688 -114.539062 18.085938 -114.753906 21.453125 -114.546875 Z M 54.59375 -47.96875 L 53.640625 -45.125 L 49.21875 -35.03125 L 49.21875 -35.34375 C 46.28125 -28.1875 42.8125 -22.085938 38.8125 -17.046875 L 27.453125 -2.84375 C 27.035156 -0.53125 27.035156 1.570312 27.453125 3.46875 C 27.660156 5.363281 27.660156 7.257812 27.453125 9.15625 C 26.816406 13.78125 26.394531 16.617188 26.1875 17.671875 C 25.5625 19.566406 25.035156 22.40625 24.609375 26.1875 L 23.671875 34.390625 C 23.242188 38.179688 22.71875 40.914062 22.09375 42.59375 C 20.40625 48.695312 19.457031 54.691406 19.25 60.578125 C 19.039062 66.472656 18.410156 72.472656 17.359375 78.578125 C 14.828125 91.398438 12.09375 102.441406 9.15625 111.703125 L 4.421875 127.796875 C 2.941406 132.847656 0.0976562 137.789062 -4.109375 142.625 C -4.316406 143.050781 -4.945312 143.785156 -6 144.828125 C -7.050781 145.878906 -7.890625 146.828125 -8.515625 147.671875 C -10.203125 149.566406 -11.992188 151.359375 -13.890625 153.046875 C -16.410156 154.722656 -18.40625 155.984375 -19.875 156.828125 C -22.1875 157.878906 -24.394531 158.085938 -26.5 157.453125 C -27.34375 157.242188 -29.867188 156.828125 -34.078125 156.203125 C -37.234375 155.773438 -39.546875 155.25 -41.015625 154.625 C -43.328125 153.988281 -45.429688 153.039062 -47.328125 151.78125 C -49.015625 150.519531 -50.804688 148.625 -52.703125 146.09375 C -54.804688 142.101562 -56.066406 137.582031 -56.484375 132.53125 C -56.898438 126.632812 -56.691406 121.585938 -55.859375 117.390625 C -54.378906 109.179688 -53.328125 104.234375 -52.703125 102.546875 L -47.96875 89.296875 C -43.96875 80.046875 -39.441406 70.894531 -34.390625 61.84375 C -29.765625 53.644531 -24.507812 44.914062 -18.625 35.65625 C -18.195312 35.019531 -17.769531 34.382812 -17.34375 33.75 C -16.925781 33.125 -16.453125 32.492188 -15.921875 31.859375 C -15.398438 31.234375 -14.929688 30.609375 -14.515625 29.984375 C -12.828125 28.085938 -11.566406 26.191406 -10.734375 24.296875 C -9.890625 22.609375 -9.46875 20.296875 -9.46875 17.359375 C -9.46875 13.992188 -9.363281 11.570312 -9.15625 10.09375 L -7.890625 -5.046875 C -7.460938 -11.773438 -6.9375 -16.929688 -6.3125 -20.515625 L -3.78125 -35.65625 L -0.625 -50.796875 C -0.207031 -51.640625 0.15625 -52.796875 0.46875 -54.265625 C 0.789062 -55.742188 1.054688 -56.898438 1.265625 -57.734375 C 1.472656 -58.578125 1.894531 -60.894531 2.53125 -64.6875 L 3.46875 -71.3125 C 3.675781 -74.257812 4.625 -76.15625 6.3125 -77 L 17.984375 -75.09375 L 24.609375 -73.515625 L 28.40625 -71.625 L 31.5625 -69.109375 C 33.03125 -61.535156 33.34375 -54.171875 32.5 -47.015625 C 31.238281 -37.335938 30.1875 -30.082031 29.34375 -25.25 L 27.453125 -12.625 C 30.191406 -15.988281 32.71875 -19.457031 35.03125 -23.03125 C 35.863281 -23.875 36.859375 -25.296875 38.015625 -27.296875 C 39.179688 -29.296875 40.179688 -30.71875 41.015625 -31.5625 C 43.117188 -34.289062 44.59375 -36.601562 45.4375 -38.5 L 50.171875 -47.015625 C 51.429688 -49.328125 52.90625 -49.644531 54.59375 -47.96875 Z M -15.140625 80.15625 C -15.566406 76.363281 -15.253906 72.578125 -14.203125 68.796875 C -13.359375 65.003906 -13.039062 61.109375 -13.25 57.109375 C -13.25 55.640625 -13.351562 54.695312 -13.5625 54.28125 C -17.5625 61.851562 -20.71875 69.738281 -23.03125 77.9375 L -29.65625 102.546875 L -32.1875 113.90625 C -32.8125 117.0625 -33.96875 120.742188 -35.65625 124.953125 L -38.5 129.6875 L -41.015625 134.421875 C -42.066406 136.734375 -42.703125 139.15625 -42.921875 141.6875 L -43.859375 148.9375 C -44.273438 150.832031 -43.328125 152.304688 -41.015625 153.359375 C -38.492188 154.203125 -35.023438 154.304688 -30.609375 153.671875 C -29.140625 153.460938 -27.878906 152.515625 -26.828125 150.828125 C -25.984375 149.773438 -25.242188 148.09375 -24.609375 145.78125 C -24.191406 144.726562 -23.769531 142.835938 -23.34375 140.109375 L -22.40625 135.046875 L -19.5625 120.859375 C -18.71875 116.015625 -18.085938 111.28125 -17.671875 106.65625 L -16.71875 93.40625 C -16.300781 86.882812 -15.773438 82.46875 -15.140625 80.15625 Z M -15.140625 80.15625 "/></g></g></g></svg>