<svg xmlns="http://www.w3.org/2000/svg" xmlns:xlink="http://www.w3.org/1999/xlink" width="500" zoomAndPan="magnify" viewBox="0 0 375 374.999991" height="500" preserveAspectRatio="xMidYMid meet" version="1.0"><defs><g/></defs><g fill="#000000" fill-opacity="1"><g transform="translate(43.464352, 213.855706)"><g><path d="M 7.640625 -40.78125 L 8.765625 -39.875 C 9.441406 -39.425781 10.078125 -38.640625 10.671875 -37.515625 C 11.046875 -37.066406 11.269531 -36.695312 11.34375 -36.40625 L 12.015625 -34.828125 C 12.242188 -34.078125 12.394531 -33.515625 12.46875 -33.140625 C 12.539062 -32.617188 12.539062 -32.171875 12.46875 -31.796875 C 11.945312 -31.117188 11.050781 -30.894531 9.78125 -31.125 C 8.800781 -31.34375 7.863281 -31.640625 6.96875 -32.015625 C 6.738281 -32.171875 6.4375 -32.394531 6.0625 -32.6875 L 4.609375 -33.703125 C 4.078125 -34.003906 3.625 -34.34375 3.25 -34.71875 C 2.882812 -35.09375 2.773438 -35.425781 2.921875 -35.71875 C 3.671875 -37.519531 4.082031 -38.492188 4.15625 -38.640625 C 4.601562 -39.691406 4.992188 -40.328125 5.328125 -40.546875 C 5.671875 -40.773438 6.441406 -40.851562 7.640625 -40.78125 Z M 19.4375 -17.078125 L 19.09375 -16.0625 L 17.53125 -12.46875 L 17.53125 -12.578125 C 16.476562 -10.035156 15.238281 -7.863281 13.8125 -6.0625 L 9.78125 -1.015625 C 9.625 -0.191406 9.625 0.554688 9.78125 1.234375 C 9.851562 1.910156 9.851562 2.585938 9.78125 3.265625 C 9.550781 4.910156 9.398438 5.921875 9.328125 6.296875 C 9.097656 6.960938 8.910156 7.972656 8.765625 9.328125 L 8.421875 12.25 C 8.273438 13.59375 8.085938 14.566406 7.859375 15.171875 C 7.265625 17.335938 6.925781 19.46875 6.84375 21.5625 C 6.769531 23.664062 6.546875 25.800781 6.171875 27.96875 C 5.273438 32.539062 4.304688 36.472656 3.265625 39.765625 L 1.578125 45.5 C 1.046875 47.300781 0.0351562 49.0625 -1.453125 50.78125 C -1.535156 50.925781 -1.765625 51.1875 -2.140625 51.5625 C -2.515625 51.9375 -2.8125 52.273438 -3.03125 52.578125 C -3.632812 53.253906 -4.269531 53.890625 -4.9375 54.484375 C -5.84375 55.085938 -6.554688 55.535156 -7.078125 55.828125 C -7.898438 56.203125 -8.6875 56.28125 -9.4375 56.0625 C -9.738281 55.988281 -10.640625 55.835938 -12.140625 55.609375 C -13.253906 55.460938 -14.078125 55.273438 -14.609375 55.046875 C -15.429688 54.828125 -16.179688 54.488281 -16.859375 54.03125 C -17.453125 53.582031 -18.085938 52.910156 -18.765625 52.015625 C -19.515625 50.585938 -19.960938 48.976562 -20.109375 47.1875 C -20.253906 45.082031 -20.179688 43.285156 -19.890625 41.796875 C -19.359375 38.867188 -18.984375 37.109375 -18.765625 36.515625 L -17.078125 31.796875 C -15.648438 28.492188 -14.039062 25.234375 -12.25 22.015625 C -10.601562 19.097656 -8.726562 15.988281 -6.625 12.6875 C -6.476562 12.46875 -6.328125 12.242188 -6.171875 12.015625 C -6.023438 11.796875 -5.859375 11.570312 -5.671875 11.34375 C -5.484375 11.125 -5.316406 10.898438 -5.171875 10.671875 C -4.566406 9.992188 -4.113281 9.320312 -3.8125 8.65625 C -3.519531 8.050781 -3.375 7.222656 -3.375 6.171875 C -3.375 4.972656 -3.335938 4.113281 -3.265625 3.59375 L -2.8125 -1.796875 C -2.65625 -4.191406 -2.46875 -6.023438 -2.25 -7.296875 L -1.34375 -12.6875 L -0.21875 -18.09375 C -0.0703125 -18.382812 0.0546875 -18.789062 0.171875 -19.3125 C 0.285156 -19.84375 0.378906 -20.257812 0.453125 -20.5625 C 0.523438 -20.863281 0.675781 -21.6875 0.90625 -23.03125 L 1.234375 -25.390625 C 1.304688 -26.441406 1.644531 -27.113281 2.25 -27.40625 L 6.40625 -26.734375 L 8.765625 -26.171875 L 10.109375 -25.5 L 11.234375 -24.609375 C 11.753906 -21.910156 11.867188 -19.285156 11.578125 -16.734375 C 11.117188 -13.296875 10.742188 -10.710938 10.453125 -8.984375 L 9.78125 -4.5 C 10.75 -5.695312 11.644531 -6.929688 12.46875 -8.203125 C 12.769531 -8.503906 13.125 -9.007812 13.53125 -9.71875 C 13.945312 -10.425781 14.304688 -10.929688 14.609375 -11.234375 C 15.359375 -12.203125 15.878906 -13.023438 16.171875 -13.703125 L 17.859375 -16.734375 C 18.304688 -17.554688 18.832031 -17.671875 19.4375 -17.078125 Z M -5.390625 28.53125 C -5.546875 27.1875 -5.4375 25.835938 -5.0625 24.484375 C -4.757812 23.140625 -4.644531 21.753906 -4.71875 20.328125 C -4.71875 19.804688 -4.753906 19.472656 -4.828125 19.328125 C -6.253906 22.023438 -7.378906 24.832031 -8.203125 27.75 L -10.5625 36.515625 L -11.453125 40.5625 C -11.679688 41.675781 -12.09375 42.984375 -12.6875 44.484375 L -13.703125 46.171875 L -14.609375 47.859375 C -14.984375 48.679688 -15.207031 49.539062 -15.28125 50.4375 L -15.609375 53.03125 C -15.765625 53.695312 -15.429688 54.21875 -14.609375 54.59375 C -13.703125 54.894531 -12.460938 54.9375 -10.890625 54.71875 C -10.367188 54.632812 -9.921875 54.296875 -9.546875 53.703125 C -9.242188 53.328125 -8.984375 52.726562 -8.765625 51.90625 C -8.609375 51.53125 -8.457031 50.851562 -8.3125 49.875 L -7.96875 48.078125 L -6.96875 43.03125 C -6.664062 41.300781 -6.441406 39.613281 -6.296875 37.96875 L -5.953125 33.25 C -5.804688 30.925781 -5.617188 29.351562 -5.390625 28.53125 Z M -5.390625 28.53125 "/></g></g></g><g fill="#000000" fill-opacity="1"><g transform="translate(61.889492, 213.855706)"><g><path d="M 11.125 -26.171875 L 11.34375 -26.40625 C 11.195312 -26.25 11.125 -26.132812 11.125 -26.0625 C 11.125 -25.988281 11.046875 -25.878906 10.890625 -25.734375 C 10.816406 -25.648438 10.816406 -25.609375 10.890625 -25.609375 C 11.046875 -25.609375 11.160156 -25.644531 11.234375 -25.71875 C 11.304688 -25.800781 11.34375 -25.914062 11.34375 -26.0625 C 11.34375 -26.132812 11.269531 -26.171875 11.125 -26.171875 Z M 21.125 -11.578125 L 20.78125 -10.890625 C 17.332031 -3.628906 12.765625 0 7.078125 0 L 5.5 -0.109375 C 5.351562 -0.265625 5.242188 -0.34375 5.171875 -0.34375 C 5.097656 -0.34375 4.984375 -0.414062 4.828125 -0.5625 C 3.859375 -0.632812 2.960938 -0.972656 2.140625 -1.578125 C 1.609375 -1.953125 0.894531 -2.695312 0 -3.8125 C -0.96875 -5.019531 -1.566406 -6.484375 -1.796875 -8.203125 C -2.023438 -9.773438 -2.023438 -11.347656 -1.796875 -12.921875 C -1.566406 -14.710938 -1.191406 -16.285156 -0.671875 -17.640625 C -0.523438 -18.234375 0.0351562 -19.726562 1.015625 -22.125 C 1.835938 -23.695312 2.734375 -25.046875 3.703125 -26.171875 C 4.679688 -27.296875 6.144531 -28.046875 8.09375 -28.421875 C 8.6875 -28.566406 9.429688 -28.566406 10.328125 -28.421875 L 12.6875 -28.09375 C 13.519531 -27.9375 14.082031 -27.707031 14.375 -27.40625 L 15.734375 -26.0625 C 15.734375 -23.96875 15.320312 -21.679688 14.5 -19.203125 C 13.664062 -16.890625 12.648438 -14.832031 11.453125 -13.03125 C 11.160156 -12.582031 10.691406 -11.945312 10.046875 -11.125 C 9.410156 -10.300781 9.054688 -9.8125 8.984375 -9.65625 C 8.085938 -8.53125 7.488281 -7.332031 7.1875 -6.0625 C 7.632812 -5.09375 8.269531 -4.609375 9.09375 -4.609375 L 10.328125 -4.609375 C 14.078125 -5.429688 17.453125 -8.460938 20.453125 -13.703125 L 22.125 -16.734375 C 22.5 -17.554688 23.023438 -17.742188 23.703125 -17.296875 Z M 10.453125 -25.84375 L 10 -25.609375 C 9.019531 -24.191406 8.457031 -22.359375 8.3125 -20.109375 C 8.238281 -17.859375 8.238281 -15.910156 8.3125 -14.265625 C 8.613281 -14.265625 8.953125 -14.453125 9.328125 -14.828125 C 9.703125 -15.203125 10 -15.648438 10.21875 -16.171875 L 10.890625 -17.859375 L 11.34375 -19.09375 L 12.25 -22.46875 C 12.46875 -23.363281 12.65625 -24.523438 12.8125 -25.953125 C 12.207031 -26.398438 11.53125 -26.507812 10.78125 -26.28125 C 10.632812 -26.132812 10.5625 -26.023438 10.5625 -25.953125 Z M 10.453125 -25.84375 "/></g></g></g><g fill="#000000" fill-opacity="1"><g transform="translate(84.246828, 213.855706)"><g><path d="M 34.484375 -11.453125 L 34.828125 -12.015625 C 31.378906 -4.003906 26.773438 -0.0703125 21.015625 -0.21875 L 19.4375 -0.34375 C 18.613281 -0.414062 17.828125 -0.863281 17.078125 -1.6875 C 15.878906 -2.65625 15.054688 -3.925781 14.609375 -5.5 C 14.160156 -7.070312 13.9375 -8.679688 13.9375 -10.328125 C 13.9375 -11.609375 14.125 -13.296875 14.5 -15.390625 L 15.5 -20 C 14.675781 -19.84375 13.96875 -19.316406 13.375 -18.421875 C 13.144531 -18.117188 12.84375 -17.722656 12.46875 -17.234375 C 12.09375 -16.753906 11.796875 -16.398438 11.578125 -16.171875 L 9.546875 -13.703125 C 9.242188 -13.253906 9.019531 -12.769531 8.875 -12.25 L 8.53125 -10.5625 C 8.382812 -8.46875 8.050781 -6.445312 7.53125 -4.5 C 7.457031 -4.195312 7.34375 -3.78125 7.1875 -3.25 C 7.039062 -2.726562 6.890625 -2.359375 6.734375 -2.140625 C 6.515625 -1.390625 6.03125 -0.789062 5.28125 -0.34375 C 4.601562 0.257812 3.742188 0.488281 2.703125 0.34375 C 1.648438 0.113281 0.972656 -0.109375 0.671875 -0.328125 C 0.367188 -0.554688 0.144531 -1.234375 0 -2.359375 C -0.519531 -5.648438 -0.671875 -9.359375 -0.453125 -13.484375 L 0.453125 -24.609375 L 2.46875 -25.734375 C 3.070312 -26.097656 3.820312 -26.207031 4.71875 -26.0625 C 6.738281 -25.914062 8.007812 -24.941406 8.53125 -23.140625 C 8.90625 -21.640625 9.09375 -20.515625 9.09375 -19.765625 C 9.09375 -18.722656 8.984375 -17.601562 8.765625 -16.40625 C 9.066406 -16.101562 9.40625 -16.101562 9.78125 -16.40625 L 12.8125 -19.4375 C 14.15625 -20.78125 15.164062 -21.863281 15.84375 -22.6875 L 17.859375 -24.828125 C 18.609375 -25.503906 19.507812 -25.765625 20.5625 -25.609375 L 21.234375 -25.5 C 21.535156 -24.75 22.019531 -24.265625 22.6875 -24.046875 C 23.4375 -23.816406 23.960938 -23.328125 24.265625 -22.578125 C 24.566406 -21.753906 24.679688 -20.96875 24.609375 -20.21875 C 24.378906 -18.875 24.226562 -18.085938 24.15625 -17.859375 C 24.082031 -17.640625 23.96875 -17.265625 23.8125 -16.734375 C 23.664062 -16.210938 23.519531 -15.800781 23.375 -15.5 C 23.070312 -14.75 22.84375 -13.960938 22.6875 -13.140625 L 21.6875 -9.4375 L 20.671875 -5.734375 C 21.117188 -4.910156 21.71875 -4.5 22.46875 -4.5 L 23.703125 -4.5 C 27.296875 -5.25 30.664062 -8.28125 33.8125 -13.59375 L 35.5 -16.625 C 35.875 -17.601562 36.363281 -17.789062 36.96875 -17.1875 Z M 34.484375 -11.453125 "/></g></g></g><g fill="#000000" fill-opacity="1"><g transform="translate(118.96248, 213.855706)"><g><path d="M 34.484375 -11.453125 L 34.828125 -12.015625 C 31.378906 -4.003906 26.773438 -0.0703125 21.015625 -0.21875 L 19.4375 -0.34375 C 18.613281 -0.414062 17.828125 -0.863281 17.078125 -1.6875 C 15.878906 -2.65625 15.054688 -3.925781 14.609375 -5.5 C 14.160156 -7.070312 13.9375 -8.679688 13.9375 -10.328125 C 13.9375 -11.609375 14.125 -13.296875 14.5 -15.390625 L 15.5 -20 C 14.675781 -19.84375 13.96875 -19.316406 13.375 -18.421875 C 13.144531 -18.117188 12.84375 -17.722656 12.46875 -17.234375 C 12.09375 -16.753906 11.796875 -16.398438 11.578125 -16.171875 L 9.546875 -13.703125 C 9.242188 -13.253906 9.019531 -12.769531 8.875 -12.25 L 8.53125 -10.5625 C 8.382812 -8.46875 8.050781 -6.445312 7.53125 -4.5 C 7.457031 -4.195312 7.34375 -3.78125 7.1875 -3.25 C 7.039062 -2.726562 6.890625 -2.359375 6.734375 -2.140625 C 6.515625 -1.390625 6.03125 -0.789062 5.28125 -0.34375 C 4.601562 0.257812 3.742188 0.488281 2.703125 0.34375 C 1.648438 0.113281 0.972656 -0.109375 0.671875 -0.328125 C 0.367188 -0.554688 0.144531 -1.234375 0 -2.359375 C -0.519531 -5.648438 -0.671875 -9.359375 -0.453125 -13.484375 L 0.453125 -24.609375 L 2.46875 -25.734375 C 3.070312 -26.097656 3.820312 -26.207031 4.71875 -26.0625 C 6.738281 -25.914062 8.007812 -24.941406 8.53125 -23.140625 C 8.90625 -21.640625 9.09375 -20.515625 9.09375 -19.765625 C 9.09375 -18.722656 8.984375 -17.601562 8.765625 -16.40625 C 9.066406 -16.101562 9.40625 -16.101562 9.78125 -16.40625 L 12.8125 -19.4375 C 14.15625 -20.78125 15.164062 -21.863281 15.84375 -22.6875 L 17.859375 -24.828125 C 18.609375 -25.503906 19.507812 -25.765625 20.5625 -25.609375 L 21.234375 -25.5 C 21.535156 -24.75 22.019531 -24.265625 22.6875 -24.046875 C 23.4375 -23.816406 23.960938 -23.328125 24.265625 -22.578125 C 24.566406 -21.753906 24.679688 -20.96875 24.609375 -20.21875 C 24.378906 -18.875 24.226562 -18.085938 24.15625 -17.859375 C 24.082031 -17.640625 23.96875 -17.265625 23.8125 -16.734375 C 23.664062 -16.210938 23.519531 -15.800781 23.375 -15.5 C 23.070312 -14.75 22.84375 -13.960938 22.6875 -13.140625 L 21.6875 -9.4375 L 20.671875 -5.734375 C 21.117188 -4.910156 21.71875 -4.5 22.46875 -4.5 L 23.703125 -4.5 C 27.296875 -5.25 30.664062 -8.28125 33.8125 -13.59375 L 35.5 -16.625 C 35.875 -17.601562 36.363281 -17.789062 36.96875 -17.1875 Z M 34.484375 -11.453125 "/></g></g></g><g fill="#000000" fill-opacity="1"><g transform="translate(153.678131, 213.855706)"><g/></g></g><g fill="#000000" fill-opacity="1"><g transform="translate(180.641743, 213.855706)"><g><path d="M 7.640625 -40.78125 L 8.765625 -39.875 C 9.441406 -39.425781 10.078125 -38.640625 10.671875 -37.515625 C 11.046875 -37.066406 11.269531 -36.695312 11.34375 -36.40625 L 12.015625 -34.828125 C 12.242188 -34.078125 12.394531 -33.515625 12.46875 -33.140625 C 12.539062 -32.617188 12.539062 -32.171875 12.46875 -31.796875 C 11.945312 -31.117188 11.050781 -30.894531 9.78125 -31.125 C 8.800781 -31.34375 7.863281 -31.640625 6.96875 -32.015625 C 6.738281 -32.171875 6.4375 -32.394531 6.0625 -32.6875 L 4.609375 -33.703125 C 4.078125 -34.003906 3.625 -34.34375 3.25 -34.71875 C 2.882812 -35.09375 2.773438 -35.425781 2.921875 -35.71875 C 3.671875 -37.519531 4.082031 -38.492188 4.15625 -38.640625 C 4.601562 -39.691406 4.992188 -40.328125 5.328125 -40.546875 C 5.671875 -40.773438 6.441406 -40.851562 7.640625 -40.78125 Z M 19.4375 -17.078125 L 19.09375 -16.0625 L 17.53125 -12.46875 L 17.53125 -12.578125 C 16.476562 -10.035156 15.238281 -7.863281 13.8125 -6.0625 L 9.78125 -1.015625 C 9.625 -0.191406 9.625 0.554688 9.78125 1.234375 C 9.851562 1.910156 9.851562 2.585938 9.78125 3.265625 C 9.550781 4.910156 9.398438 5.921875 9.328125 6.296875 C 9.097656 6.960938 8.910156 7.972656 8.765625 9.328125 L 8.421875 12.25 C 8.273438 13.59375 8.085938 14.566406 7.859375 15.171875 C 7.265625 17.335938 6.925781 19.46875 6.84375 21.5625 C 6.769531 23.664062 6.546875 25.800781 6.171875 27.96875 C 5.273438 32.539062 4.304688 36.472656 3.265625 39.765625 L 1.578125 45.5 C 1.046875 47.300781 0.0351562 49.0625 -1.453125 50.78125 C -1.535156 50.925781 -1.765625 51.1875 -2.140625 51.5625 C -2.515625 51.9375 -2.8125 52.273438 -3.03125 52.578125 C -3.632812 53.253906 -4.269531 53.890625 -4.9375 54.484375 C -5.84375 55.085938 -6.554688 55.535156 -7.078125 55.828125 C -7.898438 56.203125 -8.6875 56.28125 -9.4375 56.0625 C -9.738281 55.988281 -10.640625 55.835938 -12.140625 55.609375 C -13.253906 55.460938 -14.078125 55.273438 -14.609375 55.046875 C -15.429688 54.828125 -16.179688 54.488281 -16.859375 54.03125 C -17.453125 53.582031 -18.085938 52.910156 -18.765625 52.015625 C -19.515625 50.585938 -19.960938 48.976562 -20.109375 47.1875 C -20.253906 45.082031 -20.179688 43.285156 -19.890625 41.796875 C -19.359375 38.867188 -18.984375 37.109375 -18.765625 36.515625 L -17.078125 31.796875 C -15.648438 28.492188 -14.039062 25.234375 -12.25 22.015625 C -10.601562 19.097656 -8.726562 15.988281 -6.625 12.6875 C -6.476562 12.46875 -6.328125 12.242188 -6.171875 12.015625 C -6.023438 11.796875 -5.859375 11.570312 -5.671875 11.34375 C -5.484375 11.125 -5.316406 10.898438 -5.171875 10.671875 C -4.566406 9.992188 -4.113281 9.320312 -3.8125 8.65625 C -3.519531 8.050781 -3.375 7.222656 -3.375 6.171875 C -3.375 4.972656 -3.335938 4.113281 -3.265625 3.59375 L -2.8125 -1.796875 C -2.65625 -4.191406 -2.46875 -6.023438 -2.25 -7.296875 L -1.34375 -12.6875 L -0.21875 -18.09375 C -0.0703125 -18.382812 0.0546875 -18.789062 0.171875 -19.3125 C 0.285156 -19.84375 0.378906 -20.257812 0.453125 -20.5625 C 0.523438 -20.863281 0.675781 -21.6875 0.90625 -23.03125 L 1.234375 -25.390625 C 1.304688 -26.441406 1.644531 -27.113281 2.25 -27.40625 L 6.40625 -26.734375 L 8.765625 -26.171875 L 10.109375 -25.5 L 11.234375 -24.609375 C 11.753906 -21.910156 11.867188 -19.285156 11.578125 -16.734375 C 11.117188 -13.296875 10.742188 -10.710938 10.453125 -8.984375 L 9.78125 -4.5 C 10.75 -5.695312 11.644531 -6.929688 12.46875 -8.203125 C 12.769531 -8.503906 13.125 -9.007812 13.53125 -9.71875 C 13.945312 -10.425781 14.304688 -10.929688 14.609375 -11.234375 C 15.359375 -12.203125 15.878906 -13.023438 16.171875 -13.703125 L 17.859375 -16.734375 C 18.304688 -17.554688 18.832031 -17.671875 19.4375 -17.078125 Z M -5.390625 28.53125 C -5.546875 27.1875 -5.4375 25.835938 -5.0625 24.484375 C -4.757812 23.140625 -4.644531 21.753906 -4.71875 20.328125 C -4.71875 19.804688 -4.753906 19.472656 -4.828125 19.328125 C -6.253906 22.023438 -7.378906 24.832031 -8.203125 27.75 L -10.5625 36.515625 L -11.453125 40.5625 C -11.679688 41.675781 -12.09375 42.984375 -12.6875 44.484375 L -13.703125 46.171875 L -14.609375 47.859375 C -14.984375 48.679688 -15.207031 49.539062 -15.28125 50.4375 L -15.609375 53.03125 C -15.765625 53.695312 -15.429688 54.21875 -14.609375 54.59375 C -13.703125 54.894531 -12.460938 54.9375 -10.890625 54.71875 C -10.367188 54.632812 -9.921875 54.296875 -9.546875 53.703125 C -9.242188 53.328125 -8.984375 52.726562 -8.765625 51.90625 C -8.609375 51.53125 -8.457031 50.851562 -8.3125 49.875 L -7.96875 48.078125 L -6.96875 43.03125 C -6.664062 41.300781 -6.441406 39.613281 -6.296875 37.96875 L -5.953125 33.25 C -5.804688 30.925781 -5.617188 29.351562 -5.390625 28.53125 Z M -5.390625 28.53125 "/></g></g></g><g fill="#000000" fill-opacity="1"><g transform="translate(199.066884, 213.855706)"><g><path d="M 35.15625 -12.015625 L 34.828125 -11.796875 C 31.898438 -5.273438 28.265625 -1.457031 23.921875 -0.34375 L 23.03125 -0.109375 C 22.351562 0.0351562 21.828125 0.0351562 21.453125 -0.109375 L 21.234375 -0.109375 L 19.765625 -0.34375 C 19.023438 -0.414062 18.46875 -0.640625 18.09375 -1.015625 C 17.488281 -1.160156 17.078125 -1.347656 16.859375 -1.578125 C 16.703125 -1.648438 16.363281 -1.945312 15.84375 -2.46875 C 15.3125 -3.070312 14.863281 -3.75 14.5 -4.5 L 13.375 -6.734375 C 12.550781 -6.285156 11.988281 -5.6875 11.6875 -4.9375 L 10.671875 -2.578125 C 10.296875 -1.679688 9.769531 -0.894531 9.09375 -0.21875 C 8.5 0.375 7.789062 0.632812 6.96875 0.5625 C 5.84375 0.257812 4.71875 -0.335938 3.59375 -1.234375 C 2.625 -2.128906 1.835938 -3.101562 1.234375 -4.15625 C 0.410156 -5.425781 -0.0351562 -6.847656 -0.109375 -8.421875 C -0.179688 -9.992188 -0.179688 -11.492188 -0.109375 -12.921875 C -0.109375 -15.691406 0.113281 -18.5 0.5625 -21.34375 L 0.90625 -25.734375 C 1.050781 -27.148438 1.382812 -28.492188 1.90625 -29.765625 C 3.925781 -29.992188 5.648438 -29.507812 7.078125 -28.3125 C 8.722656 -27.113281 9.660156 -25.503906 9.890625 -23.484375 C 10.035156 -22.804688 10.179688 -20.859375 10.328125 -17.640625 C 10.410156 -16.960938 10.453125 -15.953125 10.453125 -14.609375 C 10.453125 -13.929688 10.375 -12.921875 10.21875 -11.578125 C 10.144531 -10.671875 9.921875 -9.769531 9.546875 -8.875 C 9.242188 -8.125 9.207031 -7.1875 9.4375 -6.0625 C 10.488281 -6.738281 11.273438 -7.5625 11.796875 -8.53125 C 12.390625 -9.726562 12.800781 -10.816406 13.03125 -11.796875 C 13.257812 -12.617188 13.445312 -13.816406 13.59375 -15.390625 L 13.9375 -18.765625 C 14.082031 -20.109375 14.269531 -21.15625 14.5 -21.90625 C 14.71875 -23.332031 15.085938 -24.457031 15.609375 -25.28125 C 16.210938 -26.320312 16.890625 -27.179688 17.640625 -27.859375 C 18.460938 -28.535156 19.472656 -28.875 20.671875 -28.875 C 21.421875 -28.875 21.984375 -28.757812 22.359375 -28.53125 C 22.734375 -28.3125 23.070312 -27.828125 23.375 -27.078125 C 24.195312 -24.753906 24.609375 -22.503906 24.609375 -20.328125 C 24.609375 -17.785156 24.457031 -15.503906 24.15625 -13.484375 C 24.082031 -11.984375 23.859375 -10.519531 23.484375 -9.09375 C 23.109375 -7.675781 23.109375 -6.332031 23.484375 -5.0625 L 24.375 -5.0625 C 28.050781 -5.882812 31.421875 -8.914062 34.484375 -14.15625 L 36.171875 -17.1875 C 36.546875 -18.007812 37.070312 -18.195312 37.75 -17.75 Z M 35.15625 -12.015625 "/></g></g></g><g fill="#000000" fill-opacity="1"><g transform="translate(235.130721, 213.855706)"><g><path d="M 34.484375 -11.453125 L 34.828125 -12.015625 C 31.378906 -4.003906 26.773438 -0.0703125 21.015625 -0.21875 L 19.4375 -0.34375 C 18.613281 -0.414062 17.828125 -0.863281 17.078125 -1.6875 C 15.878906 -2.65625 15.054688 -3.925781 14.609375 -5.5 C 14.160156 -7.070312 13.9375 -8.679688 13.9375 -10.328125 C 13.9375 -11.609375 14.125 -13.296875 14.5 -15.390625 L 15.5 -20 C 14.675781 -19.84375 13.96875 -19.316406 13.375 -18.421875 C 13.144531 -18.117188 12.84375 -17.722656 12.46875 -17.234375 C 12.09375 -16.753906 11.796875 -16.398438 11.578125 -16.171875 L 9.546875 -13.703125 C 9.242188 -13.253906 9.019531 -12.769531 8.875 -12.25 L 8.53125 -10.5625 C 8.382812 -8.46875 8.050781 -6.445312 7.53125 -4.5 C 7.457031 -4.195312 7.34375 -3.78125 7.1875 -3.25 C 7.039062 -2.726562 6.890625 -2.359375 6.734375 -2.140625 C 6.515625 -1.390625 6.03125 -0.789062 5.28125 -0.34375 C 4.601562 0.257812 3.742188 0.488281 2.703125 0.34375 C 1.648438 0.113281 0.972656 -0.109375 0.671875 -0.328125 C 0.367188 -0.554688 0.144531 -1.234375 0 -2.359375 C -0.519531 -5.648438 -0.671875 -9.359375 -0.453125 -13.484375 L 0.453125 -24.609375 L 2.46875 -25.734375 C 3.070312 -26.097656 3.820312 -26.207031 4.71875 -26.0625 C 6.738281 -25.914062 8.007812 -24.941406 8.53125 -23.140625 C 8.90625 -21.640625 9.09375 -20.515625 9.09375 -19.765625 C 9.09375 -18.722656 8.984375 -17.601562 8.765625 -16.40625 C 9.066406 -16.101562 9.40625 -16.101562 9.78125 -16.40625 L 12.8125 -19.4375 C 14.15625 -20.78125 15.164062 -21.863281 15.84375 -22.6875 L 17.859375 -24.828125 C 18.609375 -25.503906 19.507812 -25.765625 20.5625 -25.609375 L 21.234375 -25.5 C 21.535156 -24.75 22.019531 -24.265625 22.6875 -24.046875 C 23.4375 -23.816406 23.960938 -23.328125 24.265625 -22.578125 C 24.566406 -21.753906 24.679688 -20.96875 24.609375 -20.21875 C 24.378906 -18.875 24.226562 -18.085938 24.15625 -17.859375 C 24.082031 -17.640625 23.96875 -17.265625 23.8125 -16.734375 C 23.664062 -16.210938 23.519531 -15.800781 23.375 -15.5 C 23.070312 -14.75 22.84375 -13.960938 22.6875 -13.140625 L 21.6875 -9.4375 L 20.671875 -5.734375 C 21.117188 -4.910156 21.71875 -4.5 22.46875 -4.5 L 23.703125 -4.5 C 27.296875 -5.25 30.664062 -8.28125 33.8125 -13.59375 L 35.5 -16.625 C 35.875 -17.601562 36.363281 -17.789062 36.96875 -17.1875 Z M 34.484375 -11.453125 "/></g></g></g><g fill="#000000" fill-opacity="1"><g transform="translate(269.84636, 213.855706)"><g><path d="M 25.5 -12.015625 L 25.609375 -12.015625 L 25.28125 -11.34375 L 24.9375 -10.671875 C 23.8125 -9.171875 22.875 -8.195312 22.125 -7.75 C 21.601562 -7.445312 21.046875 -7.109375 20.453125 -6.734375 L 19.4375 -6.171875 C 18.539062 -5.804688 17.640625 -5.582031 16.734375 -5.5 L 15.734375 -2.921875 C 15.429688 -2.023438 14.976562 -1.273438 14.375 -0.671875 C 13.625 0.078125 12.722656 0.640625 11.671875 1.015625 C 10.628906 1.390625 9.507812 1.613281 8.3125 1.6875 C 6.96875 1.90625 5.734375 1.789062 4.609375 1.34375 C 3.484375 0.820312 2.546875 0.148438 1.796875 -0.671875 C 1.046875 -1.566406 0.375 -2.578125 -0.21875 -3.703125 C -0.820312 -4.828125 -1.160156 -5.878906 -1.234375 -6.859375 C -1.460938 -8.128906 -1.460938 -9.363281 -1.234375 -10.5625 C -1.160156 -11.007812 -1.046875 -11.644531 -0.890625 -12.46875 C -0.742188 -13.289062 -0.597656 -13.890625 -0.453125 -14.265625 L 0.453125 -18.203125 C 0.972656 -20.367188 1.347656 -21.675781 1.578125 -22.125 C 1.796875 -22.65625 2.28125 -22.882812 3.03125 -22.8125 C 4.675781 -22.65625 5.648438 -22.578125 5.953125 -22.578125 C 6.628906 -22.578125 7.34375 -22.84375 8.09375 -23.375 L 8.765625 -24.15625 L 9.21875 -24.609375 L 10.21875 -25.28125 C 10.75 -25.582031 11.085938 -25.769531 11.234375 -25.84375 C 11.535156 -26.0625 11.984375 -26.25 12.578125 -26.40625 L 12.8125 -26.40625 C 13.03125 -26.550781 13.664062 -26.695312 14.71875 -26.84375 C 15.394531 -27 16.03125 -26.890625 16.625 -26.515625 C 17.675781 -26.285156 18.425781 -25.648438 18.875 -24.609375 C 19.175781 -23.628906 19.398438 -22.726562 19.546875 -21.90625 C 19.691406 -20.851562 19.765625 -19.953125 19.765625 -19.203125 C 19.992188 -18.003906 19.957031 -16.882812 19.65625 -15.84375 C 19.28125 -14.570312 19.054688 -13.445312 18.984375 -12.46875 C 18.835938 -11.414062 18.648438 -10.628906 18.421875 -10.109375 L 17.53125 -7.75 C 18.125 -7.976562 18.570312 -8.164062 18.875 -8.3125 L 20.5625 -9.21875 L 22.6875 -11.453125 C 23.363281 -12.203125 24.039062 -13.101562 24.71875 -14.15625 L 26.734375 -17.1875 C 27.335938 -18.007812 27.9375 -18.160156 28.53125 -17.640625 Z M 10.328125 -22.921875 L 10.109375 -22.578125 C 9.515625 -21.898438 9.515625 -21.335938 10.109375 -20.890625 C 10.628906 -20.441406 11.078125 -19.921875 11.453125 -19.328125 C 11.753906 -18.578125 11.867188 -17.675781 11.796875 -16.625 L 11.453125 -13.9375 C 11.378906 -13.78125 11.34375 -13.441406 11.34375 -12.921875 L 11.34375 -11.796875 C 11.875 -10.816406 12.550781 -9.914062 13.375 -9.09375 C 13.59375 -9.625 13.816406 -10.597656 14.046875 -12.015625 C 14.191406 -12.460938 14.320312 -13.117188 14.4375 -13.984375 C 14.550781 -14.847656 14.644531 -15.503906 14.71875 -15.953125 C 14.789062 -16.398438 14.941406 -17.671875 15.171875 -19.765625 C 15.316406 -21.421875 15.390625 -22.320312 15.390625 -22.46875 C 15.535156 -23.363281 15.3125 -24 14.71875 -24.375 L 13.375 -25.046875 C 12.175781 -24.753906 11.160156 -24.046875 10.328125 -22.921875 Z M 10.78125 -4.265625 L 10.671875 -4.15625 C 11.046875 -3.925781 11.347656 -4.078125 11.578125 -4.609375 C 11.648438 -4.753906 11.945312 -5.425781 12.46875 -6.625 C 11.945312 -7.070312 11.460938 -7.5625 11.015625 -8.09375 C 10.859375 -7.113281 10.707031 -6.515625 10.5625 -6.296875 C 10.332031 -5.765625 10.296875 -5.125 10.453125 -4.375 C 10.597656 -4.375 10.707031 -4.335938 10.78125 -4.265625 Z M 10.78125 -4.265625 "/></g></g></g><g fill="#000000" fill-opacity="1"><g transform="translate(295.798851, 213.855706)"><g><path d="M 34.265625 -11.6875 L 34.15625 -11.796875 C 30.632812 -3.785156 26.066406 0.144531 20.453125 0 L 18.875 -0.109375 C 17.375 -0.484375 16.25 -1.492188 15.5 -3.140625 C 14.832031 -4.046875 14.382812 -5.019531 14.15625 -6.0625 C 13.925781 -6.738281 13.738281 -7.863281 13.59375 -9.4375 C 12.914062 -9.132812 12.351562 -8.757812 11.90625 -8.3125 C 11.601562 -8.007812 11.226562 -7.484375 10.78125 -6.734375 C 9.65625 -5.085938 8.609375 -3.890625 7.640625 -3.140625 C 6.441406 -2.097656 5.207031 -1.203125 3.9375 -0.453125 C 3.488281 -0.148438 2.753906 0.238281 1.734375 0.71875 C 0.722656 1.207031 0.109375 1.53125 -0.109375 1.6875 C -1.234375 0.5625 -2.054688 -0.5625 -2.578125 -1.6875 C -3.179688 -2.957031 -3.519531 -4.269531 -3.59375 -5.625 C -3.664062 -6.664062 -3.59375 -8.007812 -3.375 -9.65625 C -3.144531 -11.007812 -2.804688 -12.320312 -2.359375 -13.59375 C -2.210938 -14.039062 -1.6875 -15.238281 -0.78125 -17.1875 C -0.1875 -18.613281 0.484375 -19.8125 1.234375 -20.78125 C 2.210938 -22.132812 3.113281 -23.222656 3.9375 -24.046875 C 4.976562 -25.085938 6.0625 -25.875 7.1875 -26.40625 C 7.707031 -26.320312 8.679688 -26.28125 10.109375 -26.28125 C 11.234375 -26.28125 12.171875 -26.019531 12.921875 -25.5 C 13.441406 -26.320312 13.664062 -27.332031 13.59375 -28.53125 C 13.519531 -29.726562 13.519531 -30.851562 13.59375 -31.90625 C 13.820312 -34.15625 14.160156 -36.398438 14.609375 -38.640625 L 15.609375 -45.046875 C 15.691406 -45.722656 15.804688 -46.769531 15.953125 -48.1875 C 16.097656 -49.613281 16.242188 -50.703125 16.390625 -51.453125 C 16.546875 -52.203125 16.679688 -53.25 16.796875 -54.59375 C 16.910156 -55.945312 17.039062 -57 17.1875 -57.75 C 17.5625 -60.289062 17.9375 -62.382812 18.3125 -64.03125 C 18.539062 -64.707031 18.726562 -65.71875 18.875 -67.0625 C 19.019531 -68.789062 19.171875 -69.804688 19.328125 -70.109375 L 20.21875 -73.140625 C 20.59375 -74.265625 21.117188 -75.160156 21.796875 -75.828125 C 23.296875 -75.609375 24.753906 -75.160156 26.171875 -74.484375 C 27.671875 -73.804688 28.796875 -72.867188 29.546875 -71.671875 C 30.367188 -70.398438 30.78125 -68.941406 30.78125 -67.296875 C 30.78125 -65.117188 30.742188 -63.546875 30.671875 -62.578125 C 30.597656 -60.773438 30.375 -59.015625 30 -57.296875 C 29.625 -55.578125 29.398438 -53.816406 29.328125 -52.015625 C 29.171875 -51.191406 29.164062 -50.441406 29.3125 -49.765625 C 29.46875 -49.085938 29.472656 -48.335938 29.328125 -47.515625 L 28.984375 -45.390625 L 28.640625 -43.25 C 28.492188 -42.195312 28.304688 -41.445312 28.078125 -41 C 27.859375 -40.550781 27.675781 -39.804688 27.53125 -38.765625 C 27.445312 -38.234375 27.40625 -37.441406 27.40625 -36.390625 C 27.40625 -35.347656 27.367188 -34.566406 27.296875 -34.046875 C 26.472656 -31.117188 25.875 -27.894531 25.5 -24.375 C 25.351562 -21.382812 25.203125 -19.550781 25.046875 -18.875 L 24.375 -13.484375 C 24.226562 -12.285156 24.15625 -11.382812 24.15625 -10.78125 C 24.15625 -10.113281 24.078125 -9.253906 23.921875 -8.203125 C 23.847656 -7.304688 23.960938 -6.628906 24.265625 -6.171875 C 24.492188 -5.804688 24.832031 -5.582031 25.28125 -5.5 C 25.800781 -5.425781 26.550781 -5.691406 27.53125 -6.296875 C 28.5 -7.046875 29.503906 -8.054688 30.546875 -9.328125 C 31.597656 -10.597656 32.613281 -12.054688 33.59375 -13.703125 C 33.664062 -13.859375 33.796875 -14.117188 33.984375 -14.484375 C 34.171875 -14.859375 34.335938 -15.125 34.484375 -15.28125 L 35.15625 -16.625 C 35.613281 -17.675781 36.140625 -17.898438 36.734375 -17.296875 Z M 12.25 -13.484375 L 12.25 -13.25 C 12.695312 -14.300781 12.882812 -15.316406 12.8125 -16.296875 C 12.65625 -17.265625 12.65625 -18.273438 12.8125 -19.328125 C 12.8125 -19.847656 12.734375 -20.632812 12.578125 -21.6875 C 12.503906 -22.351562 12.171875 -22.988281 11.578125 -23.59375 L 10.890625 -23.921875 C 10.296875 -22.953125 9.882812 -22.054688 9.65625 -21.234375 L 8.984375 -18.203125 C 8.835938 -17.898438 8.6875 -16.890625 8.53125 -15.171875 C 8.382812 -14.117188 8.160156 -13.144531 7.859375 -12.25 C 7.484375 -11.269531 7.035156 -10.519531 6.515625 -10 C 5.992188 -9.476562 5.546875 -8.726562 5.171875 -7.75 C 4.941406 -7.300781 4.675781 -6.476562 4.375 -5.28125 C 4.300781 -5.050781 4.15625 -4.191406 3.9375 -2.703125 C 5.425781 -3.972656 7 -5.617188 8.65625 -7.640625 C 10.226562 -9.585938 11.425781 -11.535156 12.25 -13.484375 Z M 12.25 -13.484375 "/></g></g></g></svg>